<?xml version="1.0" encoding="UTF-8"?>
<svg version="1.1" xmlns="http://www.w3.org/2000/svg" width="1248" height="832">
<path d="M0 0 C6.13792616 5.02368604 11.96284574 10.3601735 17.49609375 16.04296875 C17.99109375 16.49285156 18.48609375 16.94273437 18.99609375 17.40625 C40.00496813 37.00480643 53.02187557 69.14506174 54.70483398 97.56835938 C54.79933648 101.31236271 54.82525791 105.04781821 54.80859375 108.79296875 C54.8064386 109.45349243 54.80428345 110.11401611 54.80206299 110.79455566 C54.74921526 120.89916352 54.27229157 130.2791334 51.49609375 140.04296875 C51.19807861 141.09967773 51.19807861 141.09967773 50.89404297 142.17773438 C45.66650278 160.2685476 36.88528333 179.65552278 24.49609375 194.04296875 C23.83609375 194.04296875 23.17609375 194.04296875 22.49609375 194.04296875 C22.27953125 194.584375 22.06296875 195.12578125 21.83984375 195.68359375 C20.03109378 198.85942219 17.57885576 201.25024956 14.99609375 203.79296875 C14.49722656 204.29957031 13.99835938 204.80617188 13.484375 205.328125 C9.74950514 209.04296875 9.74950514 209.04296875 7.49609375 209.04296875 C7.49609375 209.70296875 7.49609375 210.36296875 7.49609375 211.04296875 C5.19452241 213.15962311 2.55521061 214.87672461 -0.00390625 216.66796875 C-0.77275146 217.20631348 -1.54159668 217.7446582 -2.33374023 218.29931641 C-18.00741394 229.0393688 -35.82832287 236.50631195 -54.50390625 240.04296875 C-55.38852539 240.21425293 -56.27314453 240.38553711 -57.18457031 240.56201172 C-60.959714 241.10901327 -64.67421761 241.24082128 -68.48046875 241.28125 C-69.23927338 241.29117981 -69.998078 241.30110962 -70.77987671 241.31134033 C-107.12504905 241.68879112 -139.46996165 233.80437947 -167.21484375 208.578125 C-169.358185 206.43834412 -171.43778776 204.25696053 -173.50390625 202.04296875 C-174.71626953 200.84220703 -174.71626953 200.84220703 -175.953125 199.6171875 C-196.72012548 178.65937232 -211.41882315 147.99717174 -211.7421875 118.21484375 C-211.75211731 117.47290268 -211.76204712 116.73096161 -211.77227783 115.96653748 C-212.10088607 85.05334334 -212.10088607 85.05334334 -207.50390625 72.04296875 C-207.19775391 71.15399902 -206.89160156 70.2650293 -206.57617188 69.34912109 C-200.39281157 51.74421098 -192.9205693 36.0884336 -180.50390625 22.04296875 C-179.97023438 21.38941406 -179.4365625 20.73585938 -178.88671875 20.0625 C-175.76009151 16.23449422 -172.33796885 12.99259111 -168.5703125 9.796875 C-167.20556456 8.63851616 -165.85852259 7.45892849 -164.53125 6.2578125 C-146.66114719 -9.90699223 -123.09443969 -19.88868863 -99.50390625 -23.95703125 C-98.4984375 -24.14007813 -97.49296875 -24.323125 -96.45703125 -24.51171875 C-62.19906075 -28.37081819 -27.66104753 -21.09312757 0 0 Z " fill="#047A7C" transform="translate(694.50390625,309.95703125)"/>
<path d="M0 0 C0 0.66 0 1.32 0 2 C0.73992187 2.12375 1.47984375 2.2475 2.2421875 2.375 C13.6209731 4.95376161 24.16882335 14.95330659 31 24 C31 24.66 31 25.32 31 26 C31.66 26 32.32 26 33 26 C36.74062204 30.69664308 38.43131908 35.62429844 40.1875 41.3125 C40.69933838 42.93437992 41.21353412 44.55551843 41.73046875 46.17578125 C42.06147583 47.24179565 42.06147583 47.24179565 42.39916992 48.3293457 C42.87053164 50.01256076 42.87053164 50.01256076 44 51 C45.29692912 68.34151436 44.53827387 86.08161458 37 102 C36.34 102 35.68 102 35 102 C34.76023437 102.70769531 34.52046875 103.41539062 34.2734375 104.14453125 C32.79531202 107.45897827 30.92659431 109.88506042 28.625 112.6875 C27.85414063 113.64011719 27.08328125 114.59273438 26.2890625 115.57421875 C24.16706214 117.82295975 22.7063177 118.69452957 20 120 C19.505 121.485 19.505 121.485 19 123 C14.66666667 126 14.66666667 126 12 126 C12 126.66 12 127.32 12 128 C10.948125 128.433125 9.89625 128.86625 8.8125 129.3125 C6.51520215 130.28195969 4.65304308 131.23130461 2.5625 132.625 C-0.96697632 134.51886534 -4.02012994 134.66272288 -8 135 C-8 135.66 -8 136.32 -8 137 C-13.97571652 138.72204919 -19.35440815 139.35357719 -25.5625 139.3125 C-26.43366455 139.30831055 -27.3048291 139.30412109 -28.20239258 139.29980469 C-41.01219713 139.07916857 -53.63752759 136.94456218 -64 129 C-65.134375 128.54625 -66.26875 128.0925 -67.4375 127.625 C-72.42639168 125.3493652 -75.25438015 121.93318 -78.625 117.75 C-80.76996366 114.79262734 -80.76996366 114.79262734 -84 114 C-85.1875 110.9375 -85.1875 110.9375 -86 108 C-86.66 108 -87.32 108 -88 108 C-88.96142017 105.79296628 -89.91919537 103.58446467 -90.875 101.375 C-91.14441406 100.75753906 -91.41382813 100.14007813 -91.69140625 99.50390625 C-99.78540561 80.7495175 -101.50161645 61.50484935 -95 42 C-94.34 42 -93.68 42 -93 42 C-92.896875 41.319375 -92.79375 40.63875 -92.6875 39.9375 C-89.45206426 26.11336547 -77.64072441 12.86273951 -66 5.0625 C-60.63862698 2.02105858 -54.21594345 -1 -48 -1 C-48 -1.66 -48 -2.32 -48 -3 C-32.67535361 -5.31848894 -14.36454469 -6.63434641 0 0 Z " fill="#067C7E" transform="translate(642,352)"/>
<path d="M0 0 C0 0.66 0 1.32 0 2 C0.73992187 2.12375 1.47984375 2.2475 2.2421875 2.375 C13.6209731 4.95376161 24.16882335 14.95330659 31 24 C31 24.66 31 25.32 31 26 C31.66 26 32.32 26 33 26 C36.74062204 30.69664308 38.43131908 35.62429844 40.1875 41.3125 C40.69933838 42.93437992 41.21353412 44.55551843 41.73046875 46.17578125 C42.06147583 47.24179565 42.06147583 47.24179565 42.39916992 48.3293457 C42.87053164 50.01256076 42.87053164 50.01256076 44 51 C45.29692912 68.34151436 44.53827387 86.08161458 37 102 C36.34 102 35.68 102 35 102 C34.76023437 102.70769531 34.52046875 103.41539062 34.2734375 104.14453125 C32.79531202 107.45897827 30.92659431 109.88506042 28.625 112.6875 C27.85414063 113.64011719 27.08328125 114.59273438 26.2890625 115.57421875 C24.16706214 117.82295975 22.7063177 118.69452957 20 120 C19.505 121.485 19.505 121.485 19 123 C14.66666667 126 14.66666667 126 12 126 C12 126.66 12 127.32 12 128 C10.948125 128.433125 9.89625 128.86625 8.8125 129.3125 C6.51520215 130.28195969 4.65304308 131.23130461 2.5625 132.625 C-0.96697632 134.51886534 -4.02012994 134.66272288 -8 135 C-8 135.66 -8 136.32 -8 137 C-13.97571652 138.72204919 -19.35440815 139.35357719 -25.5625 139.3125 C-26.43366455 139.30831055 -27.3048291 139.30412109 -28.20239258 139.29980469 C-41.01219713 139.07916857 -53.63752759 136.94456218 -64 129 C-65.134375 128.54625 -66.26875 128.0925 -67.4375 127.625 C-72.42639168 125.3493652 -75.25438015 121.93318 -78.625 117.75 C-80.76996366 114.79262734 -80.76996366 114.79262734 -84 114 C-85.1875 110.9375 -85.1875 110.9375 -86 108 C-86.66 108 -87.32 108 -88 108 C-88.96142017 105.79296628 -89.91919537 103.58446467 -90.875 101.375 C-91.14441406 100.75753906 -91.41382813 100.14007813 -91.69140625 99.50390625 C-99.78540561 80.7495175 -101.50161645 61.50484935 -95 42 C-94.34 42 -93.68 42 -93 42 C-92.896875 41.319375 -92.79375 40.63875 -92.6875 39.9375 C-89.45206426 26.11336547 -77.64072441 12.86273951 -66 5.0625 C-60.63862698 2.02105858 -54.21594345 -1 -48 -1 C-48 -1.66 -48 -2.32 -48 -3 C-32.67535361 -5.31848894 -14.36454469 -6.63434641 0 0 Z M-72 27 C-72.54527344 27.48597656 -73.09054687 27.97195313 -73.65234375 28.47265625 C-78.47341527 33.9365373 -81.39886704 41.95501498 -83 49 C-83.66 49 -84.32 49 -85 49 C-89.8660321 62.98984229 -88.50444733 79.81901597 -82.60546875 93.24609375 C-81.23857919 96.28731436 -81.23857919 96.28731436 -78 97 C-77.71125 97.9075 -77.4225 98.815 -77.125 99.75 C-75.77888819 103.63876746 -73.94258 105.15977061 -71 108 C-70.31421875 108.80179687 -69.6284375 109.60359375 -68.921875 110.4296875 C-61.31904392 118.98970954 -49.65235673 125.2065568 -38.03979492 126.16113281 C-18.92890757 126.55082726 -4.09083362 123.72722241 12 113 C12 112.34 12 111.68 12 111 C12.556875 110.773125 13.11375 110.54625 13.6875 110.3125 C16.62903619 108.64297946 18.6486362 106.41324179 21 104 C21.66 103.67 22.32 103.34 23 103 C23.89843581 101.0706667 24.72105999 99.10559747 25.5 97.125 C26.82047118 93.78356378 28.00204377 90.99693435 30 88 C31.33710839 80.25486274 31.14356208 72.09461317 31.25 64.25 C31.27143066 63.37553223 31.29286133 62.50106445 31.31494141 61.60009766 C31.34601815 55.50790456 30.20091176 50.65543563 28 45 C27.71898437 44.11570312 27.43796875 43.23140625 27.1484375 42.3203125 C24.43672324 34.62342657 19.4977691 26.64846609 12.33984375 22.43359375 C9.67802125 20.80272754 9.34516402 19.71176491 8 17 C2.84991172 13.59171488 -3.00839273 11.39090883 -9 10 C-9.66644531 9.81566406 -10.33289063 9.63132812 -11.01953125 9.44140625 C-34.99467686 3.51909601 -54.85032242 10.14144349 -72 27 Z " fill="#F2F9F6" transform="translate(642,352)"/>
<path d="M0 0 C1 1 1 1 1.25 4 C1.20199183 8.64719045 -0.38920659 12.69342281 -2 17 C-2.495 18.485 -2.495 18.485 -3 20 C-3.66 20 -4.32 20 -5 20 C-4.95875 21.010625 -4.9175 22.02125 -4.875 23.0625 C-4.97749357 26.29104753 -5.31564195 28.78187865 -6.30078125 31.828125 C-6.88333233 33.63761327 -7.40807197 35.46558616 -7.91796875 37.296875 C-8.25441406 38.47765625 -8.59085938 39.6584375 -8.9375 40.875 C-9.41509766 42.57269531 -9.41509766 42.57269531 -9.90234375 44.3046875 C-10.26457031 45.19414062 -10.62679687 46.08359375 -11 47 C-11.99 47.33 -12.98 47.66 -14 48 C-14.268125 48.598125 -14.53625 49.19625 -14.8125 49.8125 C-17.62590604 54.99509007 -23.85647622 56.90417249 -29.125 58.8125 C-29.80296631 59.05822754 -30.48093262 59.30395508 -31.17944336 59.55712891 C-32.65492947 60.08977258 -34.13179737 60.61860059 -35.60986328 61.14404297 C-38.16230173 62.05812358 -40.70398543 62.99900472 -43.24609375 63.94140625 C-45.01788476 64.58688364 -46.79001559 65.23142911 -48.5625 65.875 C-49.81087646 66.34063354 -49.81087646 66.34063354 -51.08447266 66.81567383 C-55.93702356 68.54858782 -59.84129083 69.44740447 -65 69 C-65.33 68.67 -65.66 68.34 -66 68 C-65.87399224 60.94356567 -63.71843935 55.0067842 -61.30566406 48.46655273 C-59.3459445 43.11987514 -57.80460025 37.78148109 -56.54296875 32.22265625 C-56 30 -56 30 -55 28 C-54.34 28 -53.68 28 -53 28 C-53.020625 26.989375 -53.04125 25.97875 -53.0625 24.9375 C-52.51154454 21.25205472 -51.03466808 19.71337812 -48.1875 17.375 C-42.83793878 13.58889664 -37.11242999 11.27526571 -31 9 C-28.79146786 8.14634751 -26.58313538 7.29217828 -24.375 6.4375 C-23.29605469 6.03015625 -22.21710937 5.6228125 -21.10546875 5.203125 C-19.13440771 4.4394938 -17.17618718 3.64111125 -15.23828125 2.796875 C-9.85388692 0.45511698 -5.88648801 -0.53513527 0 0 Z " fill="#F3F9F7" transform="translate(647,384)"/>
<path d="M0 0 C0 0.33 0 0.66 0 1 C-2.10348074 1.19504458 -4.20782585 1.38078496 -6.3125 1.5625 C-7.48425781 1.66691406 -8.65601563 1.77132813 -9.86328125 1.87890625 C-13 2 -13 2 -16 1 C-16 0.34 -16 -0.32 -16 -1 C-21.20517396 -1.83545121 -26.29989111 -2.22624322 -31.56640625 -2.38671875 C-32.36352524 -2.41224319 -33.16064423 -2.43776764 -33.98191833 -2.46406555 C-35.65674279 -2.51576785 -37.33163782 -2.56522827 -39.0065918 -2.61254883 C-41.55889551 -2.6873943 -44.11033921 -2.77808487 -46.66210938 -2.86914062 C-48.29684631 -2.91764364 -49.9316116 -2.96520176 -51.56640625 -3.01171875 C-52.32280899 -3.04077805 -53.07921173 -3.06983734 -53.85853577 -3.09977722 C-59.38968122 -3.23035781 -63.4762854 -2.07257871 -68.5 0.0625 C-71.31563821 1.11836433 -74.0279836 1.58530004 -77 2 C-77.33 2.99 -77.66 3.98 -78 5 C-80.5625 6.6875 -80.5625 6.6875 -83 8 C-82.505 9.485 -82.505 9.485 -82 11 C-85.3 11 -88.6 11 -92 11 C-92 10.34 -92 9.68 -92 9 C-92.66 9 -93.32 9 -94 9 C-94 9.66 -94 10.32 -94 11 C-95.03125 11.103125 -96.0625 11.20625 -97.125 11.3125 C-102.53273783 12.27193736 -106.23036662 14.05086027 -110 18 C-110.99 18.33 -111.98 18.66 -113 19 C-113.73323796 21.01508358 -113.73323796 21.01508358 -114 23 C-115.32 23 -116.64 23 -118 23 C-118.99 23.33 -119.98 23.66 -121 24 C-121.495 25.485 -121.495 25.485 -122 27 C-123.70938047 27.98618104 -125.42212762 28.9675758 -127.16015625 29.90234375 C-131.62479552 32.56596081 -134.96764104 36.84454513 -138 41 C-138 41.66 -138 42.32 -138 43 C-138.556875 43.226875 -139.11375 43.45375 -139.6875 43.6875 C-145.14511988 46.78506804 -147.89530195 51.26102657 -150.73046875 56.65234375 C-152.3470039 59.64169029 -154.19391548 62.44997822 -156.08203125 65.2734375 C-157.23472366 67.11557617 -157.23472366 67.11557617 -157 70 C-158.5 71.6875 -158.5 71.6875 -160 73 C-158.68 73 -157.36 73 -156 73 C-156 74.32 -156 75.64 -156 77 C-159.465 77.495 -159.465 77.495 -163 78 C-164.21560015 74.50095206 -164.0136582 73.03670897 -162.69921875 69.50390625 C-162.04703245 68.18088056 -161.37521643 66.86740998 -160.6875 65.5625 C-160.32793213 64.86455322 -159.96836426 64.16660645 -159.59790039 63.44750977 C-154.52869461 53.88964064 -148.39242725 44.76867942 -140.44140625 37.37109375 C-138.82115397 35.89875142 -138.82115397 35.89875142 -137.0625 33.5 C-119.58230545 12.3118854 -89.45017472 -0.43849344 -63 -5 C-61.99453125 -5.18304688 -60.9890625 -5.36609375 -59.953125 -5.5546875 C-40.00464599 -7.80184818 -19.01398395 -6.77544853 0 0 Z " fill="#054F74" transform="translate(658,291)"/>
<path d="M0 0 C-0.63929162 4.21932471 -1.89105964 9.89105964 -5 13 C-5.20364562 15.48447657 -5.31910071 17.96659252 -5.42578125 20.45703125 C-6.19276925 23.85369238 -7.21226234 24.91475445 -10 27 C-12.64551097 27.96608893 -15.16694518 28.77950835 -17.875 29.5 C-23.34067907 30.97035893 -27.27554895 32.7493573 -32 36 C-32.99 36 -33.98 36 -35 36 C-34.52099849 30.44358243 -33.50418684 27.00837368 -31 22 C-30.27637216 18.91224711 -29.62707176 15.82348034 -29.0390625 12.70703125 C-28 10 -28 10 -25.82421875 8.1484375 C-22.41718773 6.7630058 -19.85379803 6.70140006 -16.1875 6.8125 C-14.44533203 6.85310547 -14.44533203 6.85310547 -12.66796875 6.89453125 C-11.78753906 6.92933594 -10.90710938 6.96414063 -10 7 C-10 6.01 -10 5.02 -10 4 C-3.375 0 -3.375 0 0 0 Z " fill="#0F7C7D" transform="translate(632,402)"/>
<path d="M0 0 C10.38383107 15.57574661 7.79663373 44.25518725 4.875 61.75 C2.81035428 70.78282502 0.15856771 80.68286459 -4 89 C-4.66 89 -5.32 89 -6 89 C-5.67 86.03 -5.34 83.06 -5 80 C-4.34 80 -3.68 80 -3 80 C-3.061875 78.2365625 -3.061875 78.2365625 -3.125 76.4375 C-3.13983635 72.27590326 -2.31170778 68.93512333 -1 65 C-0.34 65 0.32 65 1 65 C1 60.38 1 55.76 1 51 C1.66 51 2.32 51 3 51 C3 40.44 3 29.88 3 19 C2.34 19 1.68 19 1 19 C1 16.36 1 13.72 1 11 C0.34 11 -0.32 11 -1 11 C-1.14285714 3.57142857 -1.14285714 3.57142857 0 0 Z " fill="#0E8669" transform="translate(743,381)"/>
<path d="M0 0 C1.32 0.66 2.64 1.32 4 2 C-4.64141697 9.59711289 -20.24368208 8.47819679 -31.11572266 8.39111328 C-33.49830328 8.37501147 -35.87918856 8.39107252 -38.26171875 8.41015625 C-48.06172453 8.42355944 -57.54800139 7.80391873 -67 5 C-67.66 4.34 -68.32 3.68 -69 3 C-65.97502572 2.81666823 -63.87458151 3.04183652 -60.97436523 4.00927734 C-56.15859374 5.42683282 -51.44706456 5.14547127 -46.47265625 4.9765625 C-44.98928017 4.93902359 -44.98928017 4.93902359 -43.47593689 4.90072632 C-40.33775177 4.81898619 -37.20023988 4.72221964 -34.0625 4.625 C-31.92645921 4.56671343 -29.79039131 4.50941121 -27.65429688 4.453125 C-22.43583025 4.31347644 -17.21783333 4.16151018 -12 4 C-12 3.67 -12 3.34 -12 3 C-10.35 3 -8.7 3 -7 3 C-7 2.34 -7 1.68 -7 1 C-5.5459375 1.0309375 -5.5459375 1.0309375 -4.0625 1.0625 C-1.12534105 1.35618499 -1.12534105 1.35618499 0 0 Z " fill="#0D936F" transform="translate(649,543)"/>
<path d="M0 0 C1.24464234 3.73392703 1.03904348 5.18435295 0 9 C-1.76412993 12.33718281 -3.80357812 15.47178169 -5.875 18.625 C-6.68904297 19.8934375 -6.68904297 19.8934375 -7.51953125 21.1875 C-12.7841955 29.34837319 -12.7841955 29.34837319 -15 32 C-15.66 32 -16.32 32 -17 32 C-17.33 32.99 -17.66 33.98 -18 35 C-19.32 35 -20.64 35 -22 35 C-22 33.68 -22 32.36 -22 31 C-21.34 31 -20.68 31 -20 31 C-20 28.69 -20 26.38 -20 24 C-19.34 24 -18.68 24 -18 24 C-18 24.66 -18 25.32 -18 26 C-17.01 25.67 -16.02 25.34 -15 25 C-14.97421875 24.37351562 -14.9484375 23.74703125 -14.921875 23.1015625 C-14.86515625 22.28429687 -14.8084375 21.46703125 -14.75 20.625 C-14.70359375 19.81289063 -14.6571875 19.00078125 -14.609375 18.1640625 C-14 16 -14 16 -12.203125 14.7734375 C-10 14 -10 14 -6 13 C-5.34 9.7 -4.68 6.4 -4 3 C-2.68 2.67 -1.36 2.34 0 2 C0 1.34 0 0.68 0 0 Z " fill="#12A36F" transform="translate(734,472)"/>
<path d="M0 0 C0.99 0.33 1.98 0.66 3 1 C2.67 1.99 2.34 2.98 2 4 C2.66 3.67 3.32 3.34 4 3 C4.33 2.01 4.66 1.02 5 0 C6.32 0 7.64 0 9 0 C7.60249952 3.15835107 5.94801766 5.32272825 3.5 7.75 C2.58734375 8.67039062 2.58734375 8.67039062 1.65625 9.609375 C0 11 0 11 -2 11 C-2 11.66 -2 12.32 -2 13 C-4.30078125 14.76171875 -4.30078125 14.76171875 -7.3125 16.6875 C-8.29863281 17.33074219 -9.28476562 17.97398437 -10.30078125 18.63671875 C-11.19152344 19.08660156 -12.08226562 19.53648437 -13 20 C-13.99 19.67 -14.98 19.34 -16 19 C-15.53199289 14.94393835 -15.12046792 11.53411321 -13 8 C-12.67 8.66 -12.34 9.32 -12 10 C-11.34 10 -10.68 10 -10 10 C-10 9.34 -10 8.68 -10 8 C-8.329375 7.5359375 -8.329375 7.5359375 -6.625 7.0625 C-3.2054845 6.17673517 -3.2054845 6.17673517 -1 5 C-0.34444881 2.47266765 -0.34444881 2.47266765 0 0 Z " fill="#129F6D" transform="translate(704,508)"/>
<path d="M0 0 C0.99 0.33 1.98 0.66 3 1 C3.85501104 3.35865115 4.52878124 5.57696696 5.125 8 C5.92333813 12.34767881 5.92333813 12.34767881 8 16 C8.0883967 18.3756852 8.11530305 20.72208674 8.09765625 23.09765625 C8.0962413 23.80651474 8.09482635 24.51537323 8.09336853 25.24571228 C8.08775443 27.51801712 8.07519963 29.79022475 8.0625 32.0625 C8.05748681 33.59960796 8.05292359 35.13671745 8.04882812 36.67382812 C8.03778042 40.44925642 8.02050641 44.22461171 8 48 C8.66 48 9.32 48 10 48 C7.27767695 56.33030853 7.27767695 56.33030853 5.9375 59.5625 C4.6251564 62.97459336 3.84391177 66.44351469 3 70 C1.68 70 0.36 70 -1 70 C-1 70.66 -1 71.32 -1 72 C-1.66 72 -2.32 72 -3 72 C-2.67 70.68 -2.34 69.36 -2 68 C-1.34 68 -0.68 68 0 68 C4.3971883 55.02673523 6.27679998 42.58730345 6.375 28.9375 C6.38877686 27.86685303 6.40255371 26.79620605 6.41674805 25.69311523 C6.38082902 19.6055588 5.7681134 15.41319953 3 10 C2.40428432 8.19814392 1.83715868 6.38631352 1.3125 4.5625 C0.93544922 3.26505859 0.93544922 3.26505859 0.55078125 1.94140625 C0.36902344 1.30074219 0.18726563 0.66007812 0 0 Z " fill="#42A898" transform="translate(679,386)"/>
<path d="M0 0 C0.33 0 0.66 0 1 0 C1.14872375 5.368219 0.62532186 10.3433366 -0.3125 15.625 C-0.43044922 16.36234375 -0.54839844 17.0996875 -0.66992188 17.859375 C-1.43106768 22.215471 -2.54458012 25.25466622 -5 29 C-5.72176449 31.0902741 -5.72176449 31.0902741 -6.125 33.125 C-7 37 -7 37 -8 40 C-8.66 40 -9.32 40 -10 40 C-10 42.64 -10 45.28 -10 48 C-10.598125 48.268125 -11.19625 48.53625 -11.8125 48.8125 C-14.05510787 49.8694745 -14.05510787 49.8694745 -15.5 51.6875 C-15.995 52.120625 -16.49 52.55375 -17 53 C-19.1875 52.6875 -19.1875 52.6875 -21 52 C-20.236875 51.401875 -19.47375 50.80375 -18.6875 50.1875 C-9.24389511 42.50084486 -8.27167704 29.47885294 -6 18 C-5.34 18 -4.68 18 -4 18 C-3.87882813 17.45472656 -3.75765625 16.90945313 -3.6328125 16.34765625 C-2.421875 10.8984375 -1.2109375 5.44921875 0 0 Z " fill="#55ADA5" transform="translate(648,386)"/>
<path d="M0 0 C0.33 0 0.66 0 1 0 C1.02517599 4.28262988 1.04307876 8.56521779 1.05493164 12.84790039 C1.05988546 14.29745232 1.06665038 15.74699946 1.07543945 17.1965332 C1.24289215 45.5748399 1.24289215 45.5748399 -3 56.8125 C-3.27328125 57.58658203 -3.5465625 58.36066406 -3.828125 59.15820312 C-4.78015849 61.82996378 -5.73034355 64.4606871 -7 67 C-7.66 67 -8.32 67 -9 67 C-8.67 64.03 -8.34 61.06 -8 58 C-7.34 58 -6.68 58 -6 58 C-6.04125 56.824375 -6.0825 55.64875 -6.125 54.4375 C-6.13983635 50.27590326 -5.31170778 46.93512333 -4 43 C-3.34 43 -2.68 43 -2 43 C-2 38.38 -2 33.76 -2 29 C-1.34 29 -0.68 29 0 29 C0 19.43 0 9.86 0 0 Z " fill="#129168" transform="translate(746,403)"/>
<path d="M0 0 C0 3.29328719 -0.7615544 4.97268853 -2 8 C-2.226875 9.11375 -2.45375 10.2275 -2.6875 11.375 C-4.35814013 15.98914893 -6.95328571 19.19120464 -11 22 C-12.32 22 -13.64 22 -15 22 C-15 21.34 -15 20.68 -15 20 C-16.98 20.66 -18.96 21.32 -21 22 C-21 21.34 -21 20.68 -21 20 C-19.33984375 19.12109375 -17.6796875 18.2421875 -16.01953125 17.36328125 C-11.26943631 14.15673747 -7.75729419 9.60978236 -4.1875 5.1875 C-3.39730469 4.21167969 -2.60710938 3.23585938 -1.79296875 2.23046875 C-1.20128906 1.49441406 -0.60960937 0.75835937 0 0 Z " fill="#109989" transform="translate(675,458)"/>
<path d="M0 0 C1.41377341 2.63904371 2.37240135 5.07120629 3 8 C5.64 8 8.28 8 11 8 C11 8.66 11 9.32 11 10 C10.34 10 9.68 10 9 10 C9 11.32 9 12.64 9 14 C9 14.66 9 15.32 9 16 C8.34 16 7.68 16 7 16 C6.67 16.66 6.34 17.32 6 18 C5.30132813 17.28972656 4.60265625 16.57945312 3.8828125 15.84765625 C2.97273437 14.92855469 2.06265625 14.00945313 1.125 13.0625 C0.22007812 12.14597656 -0.68484375 11.22945312 -1.6171875 10.28515625 C-3.77682255 7.98812373 -3.77682255 7.98812373 -6 7 C-5.67 6.01 -5.34 5.02 -5 4 C-3.68 4 -2.36 4 -1 4 C-0.67 2.68 -0.34 1.36 0 0 Z " fill="#057476" transform="translate(525,504)"/>
<path d="M0 0 C-0.63929162 4.21932471 -1.89105964 9.89105964 -5 13 C-5.28221172 15.58022142 -5.44820197 18.16030185 -5.62109375 20.75 C-5.74613281 21.4925 -5.87117187 22.235 -6 23 C-6.66 23.33 -7.32 23.66 -8 24 C-7.95875 22.783125 -7.9175 21.56625 -7.875 20.3125 C-7.875 16.77190933 -8.31735116 14.1783367 -10 11 C-11.95216435 9.04783565 -13.53199953 8.15173355 -16 7 C-14.02 7 -12.04 7 -10 7 C-10 6.01 -10 5.02 -10 4 C-3.375 0 -3.375 0 0 0 Z " fill="#73B4B5" transform="translate(632,402)"/>
<path d="M0 0 C1.37749027 2.75498054 0.67678175 4.24684476 0.0625 7.25 C-2.65037891 22.80260034 -0.41676702 36.31958967 6.01171875 50.63671875 C7 53 7 53 7 55 C6.34 55 5.68 55 5 55 C-1.02127966 44.24771489 -3.35444831 33.96798221 -3.375 21.75 C-3.37661133 20.83976074 -3.37822266 19.92952148 -3.37988281 18.99169922 C-3.12107576 3.12107576 -3.12107576 3.12107576 0 0 Z " fill="#5F9A9E" transform="translate(545,399)"/>
<path d="M0 0 C0.33 0 0.66 0 1 0 C1.0555941 1.62458315 1.09348587 3.24977141 1.125 4.875 C1.14820313 5.77992188 1.17140625 6.68484375 1.1953125 7.6171875 C1.03426779 10.40648185 0.64581263 12.59771802 0 15.28125 C-1.62461779 22.96034403 -1.21118701 30.81775789 -1.125 38.625 C-1.11494793 40.21744227 -1.10582603 41.80989071 -1.09765625 43.40234375 C-1.07582408 47.26838365 -1.04141784 51.13412236 -1 55 C-1.33 55 -1.66 55 -2 55 C-2.91313816 50.31582082 -3.17487141 45.75417831 -3.203125 40.99609375 C-3.20882507 40.23635757 -3.21452515 39.4766214 -3.22039795 38.69386292 C-3.22980703 37.08946099 -3.23636557 35.48504009 -3.24023438 33.88061523 C-3.24987457 31.4688785 -3.28090892 29.05801927 -3.3125 26.64648438 C-3.37459527 17.30295124 -2.66108264 9.02379947 0 0 Z " fill="#035670" transform="translate(486,387)"/>
<path d="M0 0 C0 0.33 0 0.66 0 1 C-1.98 1 -3.96 1 -6 1 C-6.061875 1.763125 -6.12375 2.52625 -6.1875 3.3125 C-7 6 -7 6 -9.5625 7.8125 C-10.366875 8.204375 -11.17125 8.59625 -12 9 C-11.67 9.99 -11.34 10.98 -11 12 C-12.32 12 -13.64 12 -15 12 C-15 11.34 -15 10.68 -15 10 C-16.32 10 -17.64 10 -19 10 C-20.75 8 -20.75 8 -22 6 C-21.12988281 5.85304688 -21.12988281 5.85304688 -20.2421875 5.703125 C-16.15210005 4.92020397 -13.37236648 4.25320921 -9.875 1.875 C-6.35114146 -0.42316861 -4.12557764 -0.33004621 0 0 Z " fill="#025583" transform="translate(587,290)"/>
<path d="M0 0 C1.26026798 2.52053595 0.91874445 3.8542098 0.5625 6.625 C0.46066406 7.44226563 0.35882812 8.25953125 0.25390625 9.1015625 C0.17011719 9.72804688 0.08632813 10.35453125 0 11 C4.16138263 11.08159574 7.9472484 10.98248524 12 10 C11.67 10.66 11.34 11.32 11 12 C10.01 12 9.02 12 8 12 C8 12.99 8 13.98 8 15 C7.40832031 15.06058594 6.81664062 15.12117188 6.20703125 15.18359375 C2.09021792 15.62012371 -1.95544533 16.08671346 -6 17 C-6 15.68 -6 14.36 -6 13 C-5.34 13 -4.68 13 -4 13 C-3.87882813 12.39671875 -3.75765625 11.7934375 -3.6328125 11.171875 C-3.46523438 10.37265625 -3.29765625 9.5734375 -3.125 8.75 C-2.88136719 7.56664062 -2.88136719 7.56664062 -2.6328125 6.359375 C-2.00849925 4.03168856 -1.15161458 2.10968048 0 0 Z " fill="#4B9FA0" transform="translate(582,441)"/>
<path d="M0 0 C0.66 0.33 1.32 0.66 2 1 C0.68 1.33 -0.64 1.66 -2 2 C-2 2.66 -2 3.32 -2 4 C-5.27724872 5.82860979 -8.48004399 6.70723391 -12.125 7.5625 C-16.17552646 8.47042749 -16.17552646 8.47042749 -20 10 C-22.65835737 10.12438451 -25.27905229 10.18516188 -27.9375 10.1875 C-28.66646484 10.19974609 -29.39542969 10.21199219 -30.14648438 10.22460938 C-33.9713391 10.23512685 -35.74356564 10.17095624 -39 8 C-38.03344482 7.93268677 -38.03344482 7.93268677 -37.04736328 7.86401367 C-34.07227743 7.65013776 -31.09877102 7.41891478 -28.125 7.1875 C-27.11179687 7.11724609 -26.09859375 7.04699219 -25.0546875 6.97460938 C-17.00671482 6.32973977 -9.75343203 4.87671601 -2.5 1.25 C-1.675 0.8375 -0.85 0.425 0 0 Z " fill="#A2DBD0" transform="translate(644,470)"/>
<path d="M0 0 C0.79921875 0.00902344 1.5984375 0.01804687 2.421875 0.02734375 C3.02515625 0.03894531 3.6284375 0.05054688 4.25 0.0625 C0.57461669 4.07200907 -2.84826243 6.65619247 -7.75 9.0625 C-9.07 9.0625 -10.39 9.0625 -11.75 9.0625 C-11.42 7.7425 -11.09 6.4225 -10.75 5.0625 C-9.76 5.3925 -8.77 5.7225 -7.75 6.0625 C-8.08 4.4125 -8.41 2.7625 -8.75 1.0625 C-5.75519083 0.1901588 -3.11424089 -0.04579766 0 0 Z " fill="#139E70" transform="translate(685.75,527.9375)"/>
<path d="M0 0 C0.78375 0.04125 1.5675 0.0825 2.375 0.125 C2.705 1.115 3.035 2.105 3.375 3.125 C4.035 3.455 4.695 3.785 5.375 4.125 C5.375 4.785 5.375 5.445 5.375 6.125 C4.715 6.125 4.055 6.125 3.375 6.125 C3.705 8.765 4.035 11.405 4.375 14.125 C3.715 14.125 3.055 14.125 2.375 14.125 C1.09093601 12.17275792 -0.10441678 10.16159238 -1.25 8.125 C-1.88164062 7.01125 -2.51328125 5.8975 -3.1640625 4.75 C-3.64617187 3.88375 -4.12828125 3.0175 -4.625 2.125 C-2.625 0.125 -2.625 0.125 0 0 Z " fill="#04676C" transform="translate(500.625,475.875)"/>
<path d="M0 0 C3.03413347 -0.18388688 5.16248874 0.05251875 8.08032227 0.99560547 C12.60044854 2.32742245 16.97195962 2.25144567 21.65234375 2.1953125 C22.55247696 2.1924826 23.45261017 2.18965271 24.38002014 2.18673706 C27.2326532 2.17561278 30.08496311 2.15052283 32.9375 2.125 C34.88085482 2.11496017 36.82421459 2.10583608 38.76757812 2.09765625 C43.51184176 2.07569888 48.25586624 2.04122301 53 2 C53 2.33 53 2.66 53 3 C51.68394775 3.03758423 51.68394775 3.03758423 50.34130859 3.07592773 C47.06482809 3.17145384 43.78850102 3.27066243 40.51220703 3.37231445 C39.09818835 3.41544251 37.68412498 3.45713168 36.27001953 3.49731445 C34.2293556 3.5555575 32.18891205 3.61909141 30.1484375 3.68359375 C28.92302246 3.72025146 27.69760742 3.75690918 26.43505859 3.79467773 C23.02353165 3.93545905 23.02353165 3.93545905 19.79052734 4.55029297 C16.09598985 5.14568563 12.85350484 4.46979329 9.25 3.6875 C8.57839844 3.55666016 7.90679688 3.42582031 7.21484375 3.29101562 C2.26417312 2.26417312 2.26417312 2.26417312 0 0 Z " fill="#118167" transform="translate(580,546)"/>
<path d="M0 0 C0.33 0.66 0.66 1.32 1 2 C1.99 2.33 2.98 2.66 4 3 C3.814375 3.53625 3.62875 4.0725 3.4375 4.625 C2.84991792 7.04041563 2.84991792 7.04041563 3.4609375 9.625 C4.09251532 13.57922637 4.18394475 17.37890243 4.1875 21.375 C4.19974609 22.09171875 4.21199219 22.8084375 4.22460938 23.546875 C4.23849312 28.67460427 3.40821991 33.06844728 2 38 C1.67 38 1.34 38 1 38 C1.00523682 37.13310547 1.01047363 36.26621094 1.01586914 35.37304688 C1.03302411 32.1227239 1.04550486 28.87242419 1.05493164 25.62207031 C1.05992616 24.22167191 1.06672408 22.82127863 1.07543945 21.42089844 C1.14293426 10.67268863 1.14293426 10.67268863 0 0 Z " fill="#6EBAAE" transform="translate(671,398)"/>
<path d="M0 0 C0.33 0 0.66 0 1 0 C1.6422101 8.43435936 0.93246104 14.02409081 -4 21 C-4.33 21 -4.66 21 -5 21 C-5.09765625 14.84765625 -5.09765625 14.84765625 -5 13 C-4.67 12.67 -4.34 12.34 -4 12 C-3.72046781 9.9412232 -3.55265649 7.88271568 -3.37890625 5.8125 C-3.25386719 5.214375 -3.12882813 4.61625 -3 4 C-2.34 3.67 -1.68 3.34 -1 3 C-0.67 2.01 -0.34 1.02 0 0 Z " fill="#2B9588" transform="translate(671,428)"/>
<path d="M0 0 C2.125 0.375 2.125 0.375 4 1 C2.02 1.99 2.02 1.99 0 3 C0 3.66 0 4.32 0 5 C-2.046875 6.54296875 -2.046875 6.54296875 -4.75 8.1875 C-5.63171875 8.73792969 -6.5134375 9.28835938 -7.421875 9.85546875 C-10 11 -10 11 -12.328125 10.67578125 C-12.87984375 10.45277344 -13.4315625 10.22976563 -14 10 C-14 8.02 -14 6.04 -14 4 C-9.05 4.99 -9.05 4.99 -4 6 C-4 5.34 -4 4.68 -4 4 C-3.34 4 -2.68 4 -2 4 C-2 3.34 -2 2.68 -2 2 C-1.34 1.34 -0.68 0.68 0 0 Z " fill="#0D9284" transform="translate(654,460)"/>
<path d="M0 0 C-0.309375 0.598125 -0.61875 1.19625 -0.9375 1.8125 C-2.10209704 4.08956772 -2.10209704 4.08956772 -3 7 C-3.66 7 -4.32 7 -5 7 C-5.33 7.99 -5.66 8.98 -6 10 C-6.763125 10.12375 -7.52625 10.2475 -8.3125 10.375 C-11.20267136 10.88102792 -11.20267136 10.88102792 -14 13 C-12.49467343 6.6776284 -9.11899447 2.99269091 -3.75 -0.4375 C-2 -1 -2 -1 0 0 Z " fill="#085F7C" transform="translate(579,375)"/>
<path d="M0 0 C1.32 0.66 2.64 1.32 4 2 C2.9171875 2.9590625 2.9171875 2.9590625 1.8125 3.9375 C-1.69178279 7.40173384 -3.77359204 11.65139892 -6 16 C-7.32 15.34 -8.64 14.68 -10 14 C-6.7 9.38 -3.4 4.76 0 0 Z " fill="#064B73" transform="translate(512,334)"/>
<path d="M0 0 C0.33 0 0.66 0 1 0 C1.02505701 4.33756144 1.04302559 8.67508251 1.05493164 13.01269531 C1.05990456 14.48275488 1.06668527 15.95280965 1.07543945 17.42285156 C1.12707848 26.32906499 0.9431858 35.13171416 0 44 C-2 42 -2 42 -2.1953125 38.9609375 C-2.17210937 37.77757812 -2.14890625 36.59421875 -2.125 35.375 C-2.10695313 34.18648438 -2.08890625 32.99796875 -2.0703125 31.7734375 C-2.04710937 30.85820312 -2.02390625 29.94296875 -2 29 C-1.34 29 -0.68 29 0 29 C0 19.43 0 9.86 0 0 Z " fill="#199C77" transform="translate(746,403)"/>
<path d="M0 0 C1.65 0 3.3 0 5 0 C5 0.66 5 1.32 5 2 C4.34 2 3.68 2 3 2 C3 3.32 3 4.64 3 6 C3 6.66 3 7.32 3 8 C2.34 8 1.68 8 1 8 C0.67 8.66 0.34 9.32 0 10 C-2.64 7.36 -5.28 4.72 -8 2 C-7.01 1.67 -6.02 1.34 -5 1 C-2.8125 2.4375 -2.8125 2.4375 -1 4 C-0.67 2.68 -0.34 1.36 0 0 Z " fill="#076B6C" transform="translate(531,512)"/>
<path d="M0 0 C0.33 0 0.66 0 1 0 C1 2.64 1 5.28 1 8 C0.34 8 -0.32 8 -1 8 C-1 10.64 -1 13.28 -1 16 C-1.598125 16.268125 -2.19625 16.53625 -2.8125 16.8125 C-5.05510787 17.8694745 -5.05510787 17.8694745 -6.5 19.6875 C-6.995 20.120625 -7.49 20.55375 -8 21 C-10.1875 20.6875 -10.1875 20.6875 -12 20 C-11.236875 19.401875 -10.47375 18.80375 -9.6875 18.1875 C-8.800625 17.465625 -7.91375 16.74375 -7 16 C-6.24203125 15.39671875 -6.24203125 15.39671875 -5.46875 14.78125 C-3.34217288 12.20220967 -2.72995448 9.50777249 -1.8125 6.3125 C-1.29623047 4.54326172 -1.29623047 4.54326172 -0.76953125 2.73828125 C-0.38861328 1.38283203 -0.38861328 1.38283203 0 0 Z " fill="#399C91" transform="translate(639,418)"/>
<path d="M0 0 C0.33 0 0.66 0 1 0 C2.40913826 5.63655304 1.73956036 8.44153116 -1.08984375 13.49609375 C-1.39019531 13.99238281 -1.69054687 14.48867188 -2 15 C-1.34 15.66 -0.68 16.32 0 17 C-1 18 -1 18 -3.5625 18.0625 C-4.366875 18.041875 -5.17125 18.02125 -6 18 C-4.23536928 11.89262558 -2.30442525 5.92566493 0 0 Z " fill="#054668" transform="translate(493,366)"/>
<path d="M0 0 C0.89267578 0.00322266 1.78535156 0.00644531 2.70507812 0.00976562 C4.09823242 0.02233398 4.09823242 0.02233398 5.51953125 0.03515625 C6.45990234 0.03966797 7.40027344 0.04417969 8.36914062 0.04882812 C10.69016837 0.06060999 13.01106769 0.07706067 15.33203125 0.09765625 C15.33203125 0.42765625 15.33203125 0.75765625 15.33203125 1.09765625 C14.26082031 1.15824219 13.18960938 1.21882813 12.0859375 1.28125 C10.68878734 1.36564162 9.29165268 1.45029031 7.89453125 1.53515625 C6.83395508 1.59413086 6.83395508 1.59413086 5.75195312 1.65429688 C2.24512706 1.57390063 2.24512706 1.57390063 -0.66796875 3.09765625 C-2.99614839 3.46526356 -5.32980725 3.80007206 -7.66796875 4.09765625 C-7.99796875 5.08765625 -8.32796875 6.07765625 -8.66796875 7.09765625 C-9.98796875 7.09765625 -11.30796875 7.09765625 -12.66796875 7.09765625 C-12.66796875 6.43765625 -12.66796875 5.77765625 -12.66796875 5.09765625 C-8.49563589 1.3763864 -5.55288208 -0.03536868 0 0 Z " fill="#0B5D73" transform="translate(604.66796875,360.90234375)"/>
<path d="M0 0 C0.66 0 1.32 0 2 0 C2 2.31 2 4.62 2 7 C2.66 7 3.32 7 4 7 C3.7834375 7.928125 3.7834375 7.928125 3.5625 8.875 C2.77943337 13.22537017 2.40153341 17.60021907 2 22 C0.33325679 19.08175756 -0.2432008 17.02405621 -0.1953125 13.671875 C-0.18886719 12.87265625 -0.18242188 12.0734375 -0.17578125 11.25 C-0.15902344 10.425 -0.14226563 9.6 -0.125 8.75 C-0.11597656 7.90953125 -0.10695313 7.0690625 -0.09765625 6.203125 C-0.07415817 4.13529396 -0.03828908 2.06761005 0 0 Z " fill="#096D76" transform="translate(556,409)"/>
<path d="M0 0 C0.66 0.66 1.32 1.32 2 2 C1.566875 2.48210937 1.13375 2.96421875 0.6875 3.4609375 C0.130625 4.09257812 -0.42625 4.72421875 -1 5.375 C-1.556875 6.00148438 -2.11375 6.62796875 -2.6875 7.2734375 C-4.20172487 8.90389833 -4.20172487 8.90389833 -4 11 C-5.98 11.33 -7.96 11.66 -10 12 C-10 8.49948475 -9.47488681 7.9873084 -7.25 5.4375 C-6.73953125 4.83808594 -6.2290625 4.23867188 -5.703125 3.62109375 C-3.91379863 1.91795053 -2.25266295 0.98431577 0 0 Z " fill="#045484" transform="translate(524,323)"/>
<path d="M0 0 C1.258125 -0.020625 2.51625 -0.04125 3.8125 -0.0625 C4.52019531 -0.07410156 5.22789062 -0.08570313 5.95703125 -0.09765625 C10.66133431 0.12721483 15.53094443 2.51031481 20 4 C20 4.33 20 4.66 20 5 C17.8537974 4.85970581 15.70803782 4.71261836 13.5625 4.5625 C12.36753906 4.48128906 11.17257812 4.40007813 9.94140625 4.31640625 C7 4 7 4 6 3 C4.00041636 2.95919217 1.99954746 2.95745644 0 3 C0 2.01 0 1.02 0 0 Z " fill="#10977D" transform="translate(579,544)"/>
<path d="M0 0 C6.435 2.97 6.435 2.97 13 6 C12.67 6.99 12.34 7.98 12 9 C11.236875 8.814375 10.47375 8.62875 9.6875 8.4375 C6.91032625 7.77180827 6.91032625 7.77180827 4 9 C2.47551369 6.0173094 1.06059933 3.181798 0 0 Z " fill="#07646C" transform="translate(668,295)"/>
<path d="M0 0 C12.66970387 1.92710706 12.66970387 1.92710706 18 4 C18 4.33 18 4.66 18 5 C11.565 5.495 11.565 5.495 5 6 C4.67 5.01 4.34 4.02 4 3 C2.00334686 1.31461399 2.00334686 1.31461399 0 0 Z " fill="#04555F" transform="translate(640,287)"/>
<path d="M0 0 C0.33 0.66 0.66 1.32 1 2 C1.66 2 2.32 2 3 2 C2.835 2.928125 2.67 3.85625 2.5 4.8125 C1.92251612 7.95621353 1.92251612 7.95621353 2 11 C1.01 11.495 1.01 11.495 0 12 C-0.99 11.67 -1.98 11.34 -3 11 C-2.53199289 6.94393835 -2.12046792 3.53411321 0 0 Z " fill="#14A472" transform="translate(691,516)"/>
<path d="M0 0 C0.66 0 1.32 0 2 0 C2 1.32 2 2.64 2 4 C2.30404678 5.67225729 2.63128912 7.34080104 3 9 C-1.455 8.01 -1.455 8.01 -6 7 C-6 6.34 -6 5.68 -6 5 C-5.34 5 -4.68 5 -4 5 C-4 4.01 -4 3.02 -4 2 C-2.68 2 -1.36 2 0 2 C0 1.34 0 0.68 0 0 Z " fill="#088B79" transform="translate(574,536)"/>
<path d="M0 0 C0.99 0 1.98 0 3 0 C3.37125 1.670625 3.37125 1.670625 3.75 3.375 C4.61005339 7.04615198 4.61005339 7.04615198 7.125 8.4375 C7.74375 8.623125 8.3625 8.80875 9 9 C9 9.66 9 10.32 9 11 C9.66 11.33 10.32 11.66 11 12 C8.1875 11.8125 8.1875 11.8125 5 11 C3.3125 8.5625 3.3125 8.5625 2 6 C1.01 5.34 0.02 4.68 -1 4 C-0.67 2.68 -0.34 1.36 0 0 Z " fill="#04827F" transform="translate(539,520)"/>
<path d="M0 0 C-0.63929162 4.21932471 -1.89105964 9.89105964 -5 13 C-5.28221172 15.58022142 -5.44820197 18.16030185 -5.62109375 20.75 C-5.74613281 21.4925 -5.87117187 22.235 -6 23 C-6.66 23.33 -7.32 23.66 -8 24 C-7.67 19.38 -7.34 14.76 -7 10 C-6.01 10 -5.02 10 -4 10 C-3.7834375 8.576875 -3.7834375 8.576875 -3.5625 7.125 C-3 4 -3 4 -2 2 C-3.32 2.33 -4.64 2.66 -6 3 C-3.375 0 -3.375 0 0 0 Z " fill="#86BCBA" transform="translate(632,402)"/>
<path d="M0 0 C0.99 0.33 1.98 0.66 3 1 C2.61328125 1.60585938 2.2265625 2.21171875 1.828125 2.8359375 C-1.81412729 8.69599687 -4.6539024 14.51373015 -7 21 C-8.11954199 17.64137403 -7.94588779 17.25947297 -6.625 14.1875 C-5.25497869 10.80310945 -4.45517383 7.64139063 -4 4 C-2.68 4 -1.36 4 0 4 C0 2.68 0 1.36 0 0 Z " fill="#A0CCD0" transform="translate(566,380)"/>
<path d="M0 0 C1.98 0 3.96 0 6 0 C5.360625 0.78375 4.72125 1.5675 4.0625 2.375 C1.55353723 6.04600868 1.44267814 9.57108942 1.2734375 13.92578125 C1.18320312 14.61027344 1.09296875 15.29476563 1 16 C0.34 16.33 -0.32 16.66 -1 17 C-1.12036664 11.22240116 -0.8320582 5.72040011 0 0 Z " fill="#045B82" transform="translate(487,384)"/>
<path d="M0 0 C-0.33 0.66 -0.66 1.32 -1 2 C-6.36864892 3.72888694 -11.48903321 4.45025442 -17 3 C-17 2.67 -17 2.34 -17 2 C-14.73139163 1.4695592 -12.46001511 0.95094566 -10.1875 0.4375 C-8.29064453 0.00244141 -8.29064453 0.00244141 -6.35546875 -0.44140625 C-3 -1 -3 -1 0 0 Z M-17 4 C-15.02 4 -13.04 4 -11 4 C-11 4.33 -11 4.66 -11 5 C-12.98 5 -14.96 5 -17 5 C-17 4.67 -17 4.34 -17 4 Z " fill="#04476C" transform="translate(598,287)"/>
<path d="M0 0 C1.51400391 0.01740234 1.51400391 0.01740234 3.05859375 0.03515625 C4.07050781 0.04417969 5.08242188 0.05320312 6.125 0.0625 C7.29869141 0.07990234 7.29869141 0.07990234 8.49609375 0.09765625 C4.18299545 2.40824462 0.61774325 3.22664118 -4.26953125 3.1953125 C-5.15898438 3.19208984 -6.0484375 3.18886719 -6.96484375 3.18554688 C-7.88523437 3.17716797 -8.805625 3.16878906 -9.75390625 3.16015625 C-10.68976562 3.15564453 -11.625625 3.15113281 -12.58984375 3.14648438 C-14.89459666 3.13472543 -17.19921852 3.11829051 -19.50390625 3.09765625 C-19.50390625 2.76765625 -19.50390625 2.43765625 -19.50390625 2.09765625 C-18.36050781 2.03707031 -17.21710937 1.97648437 -16.0390625 1.9140625 C-14.5481632 1.82967197 -13.0572785 1.74502323 -11.56640625 1.66015625 C-10.81166016 1.62083984 -10.05691406 1.58152344 -9.27929688 1.54101562 C-5.84106073 1.34058033 -3.14690113 0.12273405 0 0 Z " fill="#98DCCC" transform="translate(625.50390625,487.90234375)"/>
<path d="M0 0 C0 1.32 0 2.64 0 4 C-0.99 4.66 -1.98 5.32 -3 6 C-4.01868662 6.98095748 -5.02351983 7.97702078 -6 9 C-6.33 8.67 -6.66 8.34 -7 8 C-6.6875 4.5 -6.6875 4.5 -6 1 C-4 0 -4 0 0 0 Z " fill="#09696E" transform="translate(612,410)"/>
<path d="M0 0 C-0.625 1.9375 -0.625 1.9375 -2 4 C-6.59106556 5.31173302 -11.26207861 5.0816883 -16 5 C-12.91190305 3.23537317 -11.76687864 3 -8 3 C-8 2.34 -8 1.68 -8 1 C-5.10765685 0.17361624 -3.11257569 0 0 0 Z " fill="#2EA390" transform="translate(642,486)"/>
<path d="M0 0 C0.66 0.33 1.32 0.66 2 1 C0.4375 3 0.4375 3 -2 5 C-5.75 5.25 -5.75 5.25 -9 5 C-9 3.68 -9 2.36 -9 1 C-7.700625 1.020625 -6.40125 1.04125 -5.0625 1.0625 C-3.70834367 1.08399454 -2.35243917 1.07148199 -1 1 C-0.67 0.67 -0.34 0.34 0 0 Z " fill="#086974" transform="translate(633,383)"/>
<path d="M0 0 C-4.89839001 3.89359206 -8.7950962 4.7242265 -15 5 C-15 5.66 -15 6.32 -15 7 C-16.65 7 -18.3 7 -20 7 C-16.5962379 4.09226354 -13.07282513 2.73983355 -8.875 1.25 C-7.63492188 0.80140625 -6.39484375 0.3528125 -5.1171875 -0.109375 C-2 -1 -2 -1 0 0 Z " fill="#034366" transform="translate(580,291)"/>
<path d="M0 0 C1 2 1 2 0.44140625 4.1640625 C0.15136719 4.97617187 -0.13867188 5.78828125 -0.4375 6.625 C-0.72496094 7.44226563 -1.01242187 8.25953125 -1.30859375 9.1015625 C-1.53675781 9.72804688 -1.76492188 10.35453125 -2 11 C-2.66 11 -3.32 11 -4 11 C-4.33 11.99 -4.66 12.98 -5 14 C-4.125 9.25 -4.125 9.25 -3 7 C-3.66 7 -4.32 7 -5 7 C-4.42655063 4.13275314 -4.1385485 3.1385485 -2 1 C-1.34 0.67 -0.68 0.34 0 0 Z " fill="#3E7B90" transform="translate(551,383)"/>
<path d="M0 0 C-0.625 1.9375 -0.625 1.9375 -2 4 C-5.99497711 5.08953921 -9.87726216 5.09816042 -14 5 C-13 3 -13 3 -11.07421875 2.1484375 C-10.28660156 1.89320313 -9.49898437 1.63796875 -8.6875 1.375 C-7.90761719 1.11460937 -7.12773438 0.85421875 -6.32421875 0.5859375 C-4 0 -4 0 0 0 Z " fill="#47A89F" transform="translate(618,443)"/>
<path d="M0 0 C-3.75149784 3.29677083 -7.37641805 5.15056722 -12 7 C-13.34013497 7.65288627 -14.67741528 8.31225595 -16 9 C-12.43315259 3.79834753 -6.71320314 -2.42754221 0 0 Z " fill="#B2CBD5" transform="translate(584,356)"/>
<path d="M0 0 C0.33 0 0.66 0 1 0 C1.3689719 7.31110994 0.81552726 13.21256822 -2 20 C-2.33 20 -2.66 20 -3 20 C-3.48452463 13.05514697 -1.69287491 6.7009632 0 0 Z " fill="#024562" transform="translate(486,387)"/>
<path d="M0 0 C-1.65 0.33 -3.3 0.66 -5 1 C-5.33 1.99 -5.66 2.98 -6 4 C-9.80269732 5.6900877 -12.05272168 6.19873962 -16 5 C-14.09118566 3.96455826 -12.17260796 2.94709915 -10.25 1.9375 C-8.64898438 1.08478516 -8.64898438 1.08478516 -7.015625 0.21484375 C-3.97406463 -1.01044806 -2.95106435 -1.25348607 0 0 Z " fill="#5292A0" transform="translate(600,362)"/>
<path d="M0 0 C3.97497544 3.40712181 5.86793788 7.32760855 8 12 C7.34 12 6.68 12 6 12 C5.67 10.68 5.34 9.36 5 8 C4.01 8.33 3.02 8.66 2 9 C1.67 7.68 1.34 6.36 1 5 C0.34 5 -0.32 5 -1 5 C-0.67 3.35 -0.34 1.7 0 0 Z " fill="#067063" transform="translate(725,343)"/>
<path d="M0 0 C0.33 0.66 0.66 1.32 1 2 C4.02934491 2.65772428 4.02934491 2.65772428 7 3 C7 3.99 7 4.98 7 6 C8.32 6.33 9.64 6.66 11 7 C8 8 8 8 5.30078125 6.78515625 C4.31464844 6.21667969 3.32851563 5.64820313 2.3125 5.0625 C1.31863281 4.49660156 0.32476563 3.93070313 -0.69921875 3.34765625 C-1.45847656 2.90292969 -2.21773437 2.45820312 -3 2 C-2.01 1.34 -1.02 0.68 0 0 Z " fill="#086E66" transform="translate(550,531)"/>
<path d="M0 0 C5.94 0 11.88 0 18 0 C11.7080292 3.1459854 11.7080292 3.1459854 7 2.6875 C5.6696875 2.56955078 5.6696875 2.56955078 4.3125 2.44921875 C2 2 2 2 0 0 Z " fill="#339D8A" transform="translate(608,491)"/>
<path d="M0 0 C3.99455527 0.61454696 6.74466336 2.70646737 10 5 C9.01 5.495 9.01 5.495 8 6 C7.67 6.66 7.34 7.32 7 8 C5.68 7.01 4.36 6.02 3 5 C3.33 4.34 3.66 3.68 4 3 C2.68 2.67 1.36 2.34 0 2 C0 1.34 0 0.68 0 0 Z " fill="#339B8E" transform="translate(575,480)"/>
<path d="M0 0 C0.66 0.33 1.32 0.66 2 1 C1.67 1.66 1.34 2.32 1 3 C0.34 3 -0.32 3 -1 3 C-1.33 3.99 -1.66 4.98 -2 6 C-4.64 6 -7.28 6 -10 6 C-6.87511433 3.47605388 -3.68685613 1.60298093 0 0 Z " fill="#03496E" transform="translate(558,298)"/>
<path d="M0 0 C0.33 0.99 0.66 1.98 1 3 C-0.66342837 4.66342837 -2.7825709 4.36048097 -5.0625 4.5625 C-5.98160156 4.64628906 -6.90070312 4.73007812 -7.84765625 4.81640625 C-8.55792969 4.87699219 -9.26820313 4.93757812 -10 5 C-9.67 3.68 -9.34 2.36 -9 1 C-7.68 1 -6.36 1 -5 1 C-3.32774271 0.69595322 -1.65919896 0.36871088 0 0 Z " fill="#109F71" transform="translate(672,536)"/>
<path d="M0 0 C0 3.34238213 -0.48151073 5.03533048 -2 8 C-4.625 10.3125 -4.625 10.3125 -7 12 C-7.66 11.67 -8.32 11.34 -9 11 C-6.03 7.37 -3.06 3.74 0 0 Z " fill="#4EB2A3" transform="translate(675,458)"/>
<path d="M0 0 C2.125 0.375 2.125 0.375 4 1 C2.02 1.99 2.02 1.99 0 3 C0 3.66 0 4.32 0 5 C-5.41176471 9 -5.41176471 9 -8 9 C-8 8.01 -8 7.02 -8 6 C-6.68 6 -5.36 6 -4 6 C-4 5.34 -4 4.68 -4 4 C-3.34 4 -2.68 4 -2 4 C-2 3.34 -2 2.68 -2 2 C-1.34 1.34 -0.68 0.68 0 0 Z " fill="#399F92" transform="translate(654,460)"/>
<path d="M0 0 C0.99 0.66 1.98 1.32 3 2 C3.1875 5.125 3.1875 5.125 3 8 C2.34 7.34 1.68 6.68 1 6 C-1.60280568 6.32041397 -1.60280568 6.32041397 -4 7 C-4 5.68 -4 4.36 -4 3 C-3.01 3 -2.02 3 -1 3 C-0.67 2.01 -0.34 1.02 0 0 Z " fill="#0C937D" transform="translate(740,377)"/>
<path d="M0 0 C2.97 0 5.94 0 9 0 C9 0.33 9 0.66 9 1 C-2.52164009 4.44419134 -2.52164009 4.44419134 -8 4 C-8 3.34 -8 2.68 -8 2 C-5.36 2 -2.72 2 0 2 C0 1.34 0 0.68 0 0 Z " fill="#175F78" transform="translate(596,346)"/>
<path d="M0 0 C1.65 0 3.3 0 5 0 C5.33 0.66 5.66 1.32 6 2 C2.27034861 4.03435531 0.33094958 5 -4 5 C-3.67 3.68 -3.34 2.36 -3 1 C-2.01 1.33 -1.02 1.66 0 2 C0 1.34 0 0.68 0 0 Z " fill="#138F65" transform="translate(678,532)"/>
<path d="M0 0 C1.12377697 3.30435084 0.89554742 5.0506862 -0.4375 8.25 C-0.72496094 8.95640625 -1.01242187 9.6628125 -1.30859375 10.390625 C-1.53675781 10.92171875 -1.76492188 11.4528125 -2 12 C-2.66 12 -3.32 12 -4 12 C-3.4140625 5.84765625 -3.4140625 5.84765625 -3 4 C-2.34 3.67 -1.68 3.34 -1 3 C-0.67 2.01 -0.34 1.02 0 0 Z " fill="#076B70" transform="translate(582,434)"/>
<path d="M0 0 C0.33 1.32 0.66 2.64 1 4 C-2.11910856 5.79275866 -4.67682428 6.34290718 -8.25 6.625 C-9.14203125 6.69976562 -10.0340625 6.77453125 -10.953125 6.8515625 C-11.62859375 6.90054687 -12.3040625 6.94953125 -13 7 C-8.82050327 4.21366885 -6.06624674 3 -1 3 C-0.67 2.01 -0.34 1.02 0 0 Z " fill="#B5DBDD" transform="translate(623,426)"/>
<path d="M0 0 C0.33 1.32 0.66 2.64 1 4 C1.66 4 2.32 4 3 4 C6.07692308 9.41538462 6.07692308 9.41538462 5.6875 12.375 C5.460625 12.91125 5.23375 13.4475 5 14 C1.99174436 12.49587218 1.69337029 10.13951699 0.59765625 7.078125 C-0.10104707 4.64864679 -0.23571669 2.51431136 0 0 Z " fill="#0D656D" transform="translate(559,434)"/>
<path d="M0 0 C2.46800047 1.15173355 4.04783565 2.04783565 6 4 C6.4140625 6.3828125 6.4140625 6.3828125 6.625 9.125 C6.69976563 10.03507812 6.77453125 10.94515625 6.8515625 11.8828125 C6.90054688 12.58148438 6.94953125 13.28015625 7 14 C4.66666667 9.33333333 2.33333333 4.66666667 0 0 Z " fill="#248B8B" transform="translate(618,410)"/>
<path d="M0 0 C1.32 0 2.64 0 4 0 C4 1.98 4 3.96 4 6 C2.68 6 1.36 6 0 6 C-0.38218767 4.34385343 -0.71395102 2.67542976 -1 1 C-0.67 0.67 -0.34 0.34 0 0 Z " fill="#025D7E" transform="translate(564,390)"/>
<path d="M0 0 C1.32 0.66 2.64 1.32 4 2 C2 4 2 4 -0.1640625 4.1953125 C-1.38222656 4.16050781 -1.38222656 4.16050781 -2.625 4.125 C-3.44226563 4.10695313 -4.25953125 4.08890625 -5.1015625 4.0703125 C-5.72804688 4.04710937 -6.35453125 4.02390625 -7 4 C-7 3.01 -7 2.02 -7 1 C-5.5459375 1.0309375 -5.5459375 1.0309375 -4.0625 1.0625 C-1.12534105 1.35618499 -1.12534105 1.35618499 0 0 Z " fill="#149F75" transform="translate(649,543)"/>
<path d="M0 0 C0.33 0.66 0.66 1.32 1 2 C-0.4638611 6.39158329 -2.97831338 6.87947433 -7 9 C-7 8.01 -7 7.02 -7 6 C-6.34 6 -5.68 6 -5 6 C-4.9175 5.38125 -4.835 4.7625 -4.75 4.125 C-4 2 -4 2 -1.9375 0.75 C-1.298125 0.5025 -0.65875 0.255 0 0 Z " fill="#4B9A93" transform="translate(665,450)"/>
<path d="M0 0 C1.17348213 3.52044638 0.83679382 5.42460821 0 9 C-0.66 9.66 -1.32 10.32 -2 11 C-2.54372951 7.94152152 -3 5.11227195 -3 2 C-2.01 2 -1.02 2 0 2 C0 1.34 0 0.68 0 0 Z " fill="#139567" transform="translate(734,472)"/>
<path d="M0 0 C0.93423645 3.01031744 1.04449911 3.86650268 0 7 C-0.66 7 -1.32 7 -2 7 C-2 8.65 -2 10.3 -2 12 C-1.01 12.33 -0.02 12.66 1 13 C-0.65 13.33 -2.3 13.66 -4 14 C-3.53328373 8.58609132 -2.75702189 4.79482068 0 0 Z " fill="#7CB7AF" transform="translate(601,424)"/>
<path d="M0 0 C0.33 0.66 0.66 1.32 1 2 C0.06421005 4.35981813 -0.93347808 6.69631264 -2 9 C-2.66 9 -3.32 9 -4 9 C-4.66 10.32 -5.32 11.64 -6 13 C-6.33 11.68 -6.66 10.36 -7 9 C-6.34 9 -5.68 9 -5 9 C-5 8.34 -5 7.68 -5 7 C-4.01 7 -3.02 7 -2 7 C-1.855625 6.030625 -1.71125 5.06125 -1.5625 4.0625 C-1 1 -1 1 0 0 Z " fill="#BAE6DF" transform="translate(637,423)"/>
<path d="M0 0 C1 2 1 2 0.22265625 4.3828125 C-0.16019531 5.28773438 -0.54304687 6.19265625 -0.9375 7.125 C-1.31777344 8.03507812 -1.69804688 8.94515625 -2.08984375 9.8828125 C-2.39019531 10.58148438 -2.69054687 11.28015625 -3 12 C-3.33 12 -3.66 12 -4 12 C-4 9.36 -4 6.72 -4 4 C-3.34 4 -2.68 4 -2 4 C-1.34 2.68 -0.68 1.36 0 0 Z " fill="#539D9C" transform="translate(588,424)"/>
<path d="M0 0 C5.50366792 -0.32374517 9.43672206 -0.53286034 14 3 C13.67 3.66 13.34 4.32 13 5 C12.34 5 11.68 5 11 5 C11 4.34 11 3.68 11 3 C7.37 2.34 3.74 1.68 0 1 C0 0.67 0 0.34 0 0 Z " fill="#066576" transform="translate(631,287)"/>
<path d="M0 0 C5.37109375 2.734375 5.37109375 2.734375 7 4 C7.33 5.32 7.66 6.64 8 8 C5.03 6.02 2.06 4.04 -1 2 C-0.67 1.34 -0.34 0.68 0 0 Z " fill="#06736E" transform="translate(534,521)"/>
<path d="M0 0 C0.515625 0.2475 1.03125 0.495 1.5625 0.75 C-2.32059282 4.39775386 -5.14951818 5.33525633 -10.4375 5.75 C-8.5568632 1.9887264 -4.12158654 -0.42272682 0 0 Z " fill="#5BB8A9" transform="translate(652.4375,480.25)"/>
<path d="M0 0 C-0.98562757 3.31529273 -1.65447419 4.74949379 -4.5 6.8125 C-7 8 -7 8 -9 8 C-7.47364599 4.11473526 -4.49771687 0 0 0 Z " fill="#D6E9EB" transform="translate(604,399)"/>
<path d="M0 0 C0.99 0.33 1.98 0.66 3 1 C-0.3 3.31 -3.6 5.62 -7 8 C-7.33 7.01 -7.66 6.02 -8 5 C-6.68 4.67 -5.36 4.34 -4 4 C-4 3.34 -4 2.68 -4 2 C-2.68 2 -1.36 2 0 2 C0 1.34 0 0.68 0 0 Z " fill="#1F6380" transform="translate(578,354)"/>
<path d="M0 0 C0.33 0.66 0.66 1.32 1 2 C2.32 1.67 3.64 1.34 5 1 C4.34 2.32 3.68 3.64 3 5 C2.34 5 1.68 5 1 5 C0.67 5.66 0.34 6.32 0 7 C-1 6 -1 6 -1.125 3.5 C-1 1 -1 1 0 0 Z " fill="#15875F" transform="translate(701,514)"/>
<path d="M0 0 C3.3 0 6.6 0 10 0 C6.99382731 3.00617269 4.17618402 2.59585316 0 3 C0 2.01 0 1.02 0 0 Z " fill="#DFF5F2" transform="translate(596,358)"/>
<path d="M0 0 C2.64 0 5.28 0 8 0 C5.3139714 1.79068573 3.3373411 2.66055791 0.3125 3.625 C-0.49574219 3.88539063 -1.30398438 4.14578125 -2.13671875 4.4140625 C-2.75160156 4.60742188 -3.36648438 4.80078125 -4 5 C-4 4.01 -4 3.02 -4 2 C-2.68 2 -1.36 2 0 2 C0 1.34 0 0.68 0 0 Z " fill="#447D94" transform="translate(586,350)"/>
<path d="M0 0 C-2.14331139 2.14331139 -3.14086424 2.514193 -6 3.25 C-6.70125 3.44078125 -7.4025 3.6315625 -8.125 3.828125 C-8.74375 3.88484375 -9.3625 3.9415625 -10 4 C-10.66 3.34 -11.32 2.68 -12 2 C-7.8794254 0.00214565 -4.54805635 -0.17835515 0 0 Z " fill="#097C5A" transform="translate(661,543)"/>
<path d="M0 0 C0.33 0.66 0.66 1.32 1 2 C-0.3125 4.625 -0.3125 4.625 -2 7 C-2.66 7 -3.32 7 -4 7 C-4 7.99 -4 8.98 -4 10 C-4.66 10 -5.32 10 -6 10 C-4.6302836 6.00499382 -2.74277578 3.19990508 0 0 Z " fill="#CCDFE6" transform="translate(562,370)"/>
<path d="M0 0 C1.125 1.75 1.125 1.75 2 4 C1.125 6.25 1.125 6.25 0 8 C-1.32 7.34 -2.64 6.68 -4 6 C-2.68 4.02 -1.36 2.04 0 0 Z " fill="#034165" transform="translate(506,342)"/>
<path d="M0 0 C1.65 0 3.3 0 5 0 C4.67 1.65 4.34 3.3 4 5 C3.34 5 2.68 5 2 5 C2 4.34 2 3.68 2 3 C0.35 3.33 -1.3 3.66 -3 4 C-2.67 3.34 -2.34 2.68 -2 2 C-1.34 2 -0.68 2 0 2 C0 1.34 0 0.68 0 0 Z " fill="#085384" transform="translate(540,309)"/>
<path d="M0 0 C2.64 0.66 5.28 1.32 8 2 C8.33 3.32 8.66 4.64 9 6 C4.64464931 4.83857315 2.35380297 3.92300495 0 0 Z " fill="#499992" transform="translate(578,466)"/>
<path d="M0 0 C0.99 0 1.98 0 3 0 C2.71890887 1.64767247 2.42481474 3.29313145 2.125 4.9375 C1.96257813 5.85402344 1.80015625 6.77054687 1.6328125 7.71484375 C1.42398438 8.46894531 1.21515625 9.22304688 1 10 C0.01 10.495 0.01 10.495 -1 11 C-0.67 7.37 -0.34 3.74 0 0 Z " fill="#2B7B83" transform="translate(588,414)"/>
<path d="M0 0 C1.65 0 3.3 0 5 0 C4.67 1.32 4.34 2.64 4 4 C3.34 4 2.68 4 2 4 C2 4.66 2 5.32 2 6 C1.34 6 0.68 6 0 6 C0 4.02 0 2.04 0 0 Z " fill="#036A76" transform="translate(592,400)"/>
<path d="M0 0 C0.99 0 1.98 0 3 0 C2.67 2.31 2.34 4.62 2 7 C1.01 7 0.02 7 -1 7 C-0.67 4.69 -0.34 2.38 0 0 Z " fill="#0B6C69" transform="translate(648,393)"/>
<path d="M0 0 C0.66 0 1.32 0 2 0 C1.75 3.375 1.75 3.375 1 7 C-1.0625 8.4375 -1.0625 8.4375 -3 9 C-2.67 7.35 -2.34 5.7 -2 4 C-1.34 4 -0.68 4 0 4 C0 2.68 0 1.36 0 0 Z " fill="#0B5671" transform="translate(552,376)"/>
<path d="M0 0 C1.98 0.66 3.96 1.32 6 2 C6 2.66 6 3.32 6 4 C6.66 4.33 7.32 4.66 8 5 C5.125 4.75 5.125 4.75 2 4 C0.625 1.9375 0.625 1.9375 0 0 Z " fill="#0B8E87" transform="translate(542,527)"/>
<path d="M0 0 C3.26954202 0.56371414 4.82575883 1.49962266 7 4 C6.67 4.66 6.34 5.32 6 6 C5.01 6 4.02 6 3 6 C2.01 4.02 1.02 2.04 0 0 Z " fill="#075A5B" transform="translate(505,492)"/>
<path d="M0 0 C2.475 0.495 2.475 0.495 5 1 C3.68 3.31 2.36 5.62 1 8 C0.17361624 5.10765685 0 3.11257569 0 0 Z " fill="#108D61" transform="translate(721,492)"/>
<path d="M0 0 C6.75 1.625 6.75 1.625 9 5 C4.68607774 4.5206753 2.83430453 3.2542015 0 0 Z " fill="#B7DDD5" transform="translate(569,475)"/>
<path d="M0 0 C0.33 0.99 0.66 1.98 1 3 C-1.39509338 5.89932357 -3.31245243 6.50168276 -7 7 C-4.78071806 4.09197539 -3.07030857 2.04687238 0 0 Z " fill="#46B4A1" transform="translate(665,470)"/>
<path d="M0 0 C2.97 0 5.94 0 9 0 C9 0.66 9 1.32 9 2 C5.67465243 3.10844919 3.37817425 2.84454356 0 2 C0 1.34 0 0.68 0 0 Z " fill="#259591" transform="translate(581,454)"/>
<path d="M0 0 C0.66 0 1.32 0 2 0 C1.5205537 4.21912747 0.83374881 6.79663178 -2 10 C-2 8.02 -2 6.04 -2 4 C-1.34 4 -0.68 4 0 4 C0 2.68 0 1.36 0 0 Z " fill="#BEEAE0" transform="translate(680,444)"/>
<path d="M0 0 C0.33 0 0.66 0 1 0 C2.23076923 6.4 2.23076923 6.4 1.0625 9.4375 C0.711875 9.953125 0.36125 10.46875 0 11 C-0.33 11 -0.66 11 -1 11 C-1.125 3.375 -1.125 3.375 0 0 Z " fill="#034F75" transform="translate(493,366)"/>
<path d="M0 0 C2.9375 0.75 2.9375 0.75 6 2 C6.875 4.125 6.875 4.125 7 6 C6.01 5.67 5.02 5.34 4 5 C4 4.34 4 3.68 4 3 C2.68 3 1.36 3 0 3 C0 2.01 0 1.02 0 0 Z " fill="#0D7472" transform="translate(644,369)"/>
<path d="M0 0 C0.99 0.33 1.98 0.66 3 1 C0.525 4.465 0.525 4.465 -2 8 C-2.33 7.34 -2.66 6.68 -3 6 C-1.44444444 1.44444444 -1.44444444 1.44444444 0 0 Z " fill="#2F6D87" transform="translate(560,368)"/>
<path d="M0 0 C3.3 0.33 6.6 0.66 10 1 C9.01 1.495 9.01 1.495 8 2 C7.67 2.66 7.34 3.32 7 4 C4.69 3.01 2.38 2.02 0 1 C0 0.67 0 0.34 0 0 Z " fill="#086D5F" transform="translate(560,539)"/>
<path d="M0 0 C0.66 0 1.32 0 2 0 C0.55746343 3.36591866 -1.33264727 5.51047079 -4 8 C-4 6.68 -4 5.36 -4 4 C-3.34 4 -2.68 4 -2 4 C-2 3.34 -2 2.68 -2 2 C-1.34 2 -0.68 2 0 2 C0 1.34 0 0.68 0 0 Z " fill="#DDF8EF" transform="translate(674,456)"/>
<path d="M0 0 C3.465 1.485 3.465 1.485 7 3 C6.67 4.32 6.34 5.64 6 7 C2.58841744 5.86280581 1.88145399 4.95657056 0 2 C0 1.34 0 0.68 0 0 Z " fill="#025760" transform="translate(668,295)"/>
<path d="M0 0 C0.99 0.33 1.98 0.66 3 1 C3.33 1.99 3.66 2.98 4 4 C2.1875 4.625 2.1875 4.625 0 5 C-0.99 4.34 -1.98 3.68 -3 3 C-2.34 3 -1.68 3 -1 3 C-0.67 2.01 -0.34 1.02 0 0 Z " fill="#035182" transform="translate(560,298)"/>
<path d="M0 0 C1.32 0 2.64 0 4 0 C4 0.66 4 1.32 4 2 C4.66 2 5.32 2 6 2 C5.67 3.32 5.34 4.64 5 6 C3.35 4.02 1.7 2.04 0 0 Z " fill="#218885" transform="translate(572,460)"/>
<path d="M0 0 C0.99 0 1.98 0 3 0 C2.67 1.65 2.34 3.3 2 5 C0.68 5 -0.64 5 -2 5 C-2 4.34 -2 3.68 -2 3 C-1.34 3 -0.68 3 0 3 C0 2.01 0 1.02 0 0 Z " fill="#088D8B" transform="translate(590,453)"/>
<path d="M0 0 C2.62187494 1.04874998 3.79371361 1.64931313 5.25 4.125 C5.4975 4.74375 5.745 5.3625 6 6 C4.68 6 3.36 6 2 6 C1.34 4.02 0.68 2.04 0 0 Z " fill="#108482" transform="translate(616,410)"/>
<path d="M0 0 C-0.66 1.98 -1.32 3.96 -2 6 C-2.66 6 -3.32 6 -4 6 C-4 4.35 -4 2.7 -4 1 C-2 0 -2 0 0 0 Z " fill="#479892" transform="translate(630,404)"/>
<path d="M0 0 C0.33 0.66 0.66 1.32 1 2 C1.99 2.33 2.98 2.66 4 3 C3.33333333 5.66666667 2.66666667 8.33333333 2 11 C0.80712589 7.12315913 0 4.08378077 0 0 Z " fill="#9DD1CC" transform="translate(671,398)"/>
<path d="M0 0 C0.66 0 1.32 0 2 0 C2.79953138 3.28696233 3.09658936 4.71023192 2 8 C1.34 8 0.68 8 0 8 C0 5.36 0 2.72 0 0 Z " fill="#096F75" transform="translate(662,386)"/>
<path d="M0 0 C0.33 0.99 0.66 1.98 1 3 C-0.65 4.32 -2.3 5.64 -4 7 C-4.66 6.67 -5.32 6.34 -6 6 C-4.02 4.02 -2.04 2.04 0 0 Z " fill="#34808E" transform="translate(573,376)"/>
</svg>
